<?xml version="1.0" standalone="no"?>
<!DOCTYPE svg PUBLIC "-//W3C//DTD SVG 20010904//EN"
 "http://www.w3.org/TR/2001/REC-SVG-20010904/DTD/svg10.dtd">
<svg version="1.0" xmlns="http://www.w3.org/2000/svg"
 width="681.000000pt" height="681.000000pt" viewBox="0 0 681.000000 681.000000"
 preserveAspectRatio="xMidYMid meet">
<metadata>
Created by potrace 1.11, written by Peter Selinger 2001-2013
</metadata>
<g transform="translate(0.000000,681.000000) scale(0.100000,-0.100000)"
fill="#000000" stroke="none">
<path d="M3184 6671 c-327 -58 -622 -235 -820 -492 -61 -79 -674 -1002 -712
-1072 -134 -245 -160 -565 -70 -851 12 -39 78 -183 146 -319 68 -137 122 -250
120 -252 -2 -1 -37 -20 -78 -40 -103 -52 -172 -100 -262 -185 -90 -83 -102
-101 -633 -875 -140 -203 -258 -374 -262 -380 -5 -5 -47 -66 -94 -135 -47 -69
-164 -240 -261 -380 -188 -273 -222 -331 -243 -409 -15 -59 -13 -192 5 -247
39 -119 136 -235 240 -285 104 -50 123 -51 714 -51 l553 -1 -1 -293 -1 -294
1880 2 1880 3 1 280 c1 154 2 285 3 291 1 8 150 12 544 12 298 0 558 3 577 7
102 17 186 60 258 129 95 91 138 195 139 333 2 142 -14 176 -215 467 -80 116
-175 254 -211 306 -35 52 -90 131 -120 175 -31 44 -113 163 -183 265 -70 102
-150 219 -179 260 -28 41 -123 179 -210 305 -333 486 -351 507 -517 623 -34
24 -95 60 -135 79 -39 19 -73 36 -75 38 -2 2 49 107 113 235 129 258 146 298
174 404 37 142 45 283 24 430 -34 230 -66 293 -428 837 -170 255 -339 506
-377 557 -200 271 -472 445 -808 518 -114 24 -351 27 -476 5z"/>
</g>
</svg>
